<svg xmlns="http://www.w3.org/2000/svg" viewBox="0 0 840 145" width="100%" height="100%" preserveAspectRatio="xMidYMid meet">
  <defs>
    <style>
      .bg { fill: #0d1117; stroke: #30363d; stroke-width: 1.2px; }
      .titlebar { fill: #161b22; }
      .header-text { font-family: ui-monospace, SFMono-Regular, "SF Mono", Menlo, Consolas, monospace; font-size: 11px; fill: #8b949e; font-weight: 500; }
      .metric-label { font-family: -apple-system, BlinkMacSystemFont, "Segoe UI", Helvetica, Arial, sans-serif; font-size: 11px; fill: #8b949e; text-transform: uppercase; letter-spacing: 0.8px; font-weight: 600; }
      .metric-val { font-family: ui-monospace, SFMono-Regular, "SF Mono", Menlo, Consolas, monospace; font-size: 22px; fill: #58a6ff; font-weight: 700; }
      .metric-sub { font-family: ui-monospace, SFMono-Regular, "SF Mono", Menlo, Consolas, monospace; font-size: 10px; fill: #3fb950; font-weight: 500; }
      .accent-green { fill: #3fb950; }
      .accent-blue { fill: #58a6ff; }
      .accent-purple { fill: #bc8cff; }
      .accent-orange { fill: #f0883e; }
      .divider { stroke: #21262d; stroke-width: 1px; }
    </style>
  </defs>

  <!-- Background Box -->
  <rect class="bg" x="1" y="1" width="838" height="143" rx="8" />

  <!-- Terminal Top Bar -->
  <path class="titlebar" d="M 1 9 C 1 4.5 4.5 1 9 1 L 831 1 C 835.5 1 839 4.5 839 9 L 839 30 L 1 30 Z" />
  <line x1="1" y1="30" x2="839" y2="30" stroke="#30363d" stroke-width="1" />

  <!-- Terminal Window Controls -->
  <circle cx="16" cy="15" r="4.5" fill="#ff5f56" />
  <circle cx="30" cy="15" r="4.5" fill="#ffbd2e" />
  <circle cx="44" cy="15" r="4.5" fill="#27c93f" />

  <!-- Terminal Title & Status -->
  <text class="header-text" x="62" y="19">ashish@archlinux:~/telemetry --sys-stats</text>
  <circle cx="740" cy="15" r="3.5" fill="#3fb950" />
  <text class="header-text" x="750" y="19" fill="#3fb950">LIVE SYNC · 2026-09-26</text>

  <!-- Metric 1: Public Repositories -->
  <g transform="translate(30, 48)">
    <text class="metric-label" x="0" y="20">Repositories</text>
    <text class="metric-val" x="0" y="52">24</text>
    <text class="metric-sub accent-blue" x="0" y="70">● Public Projects</text>
  </g>

  <line class="divider" x1="220" y1="45" x2="220" y2="130" />

  <!-- Metric 2: Earned Stars -->
  <g transform="translate(245, 48)">
    <text class="metric-label" x="0" y="20">Ecosystem Stars</text>
    <text class="metric-val accent-purple" x="0" y="52">327+</text>
    <text class="metric-sub accent-purple" x="0" y="70">★ Public &amp; Network</text>
  </g>

  <line class="divider" x1="435" y1="45" x2="435" y2="130" />

  <!-- Metric 3: Community Followers -->
  <g transform="translate(460, 48)">
    <text class="metric-label" x="0" y="20">Network Followers</text>
    <text class="metric-val accent-green" x="0" y="52">107</text>
    <text class="metric-sub accent-green" x="0" y="70">↑ Following 405</text>
  </g>

  <line class="divider" x1="645" y1="45" x2="645" y2="130" />

  <!-- Metric 4: Platform Focus -->
  <g transform="translate(670, 48)">
    <text class="metric-label" x="0" y="20">Primary Stack</text>
    <text class="metric-val accent-orange" x="0" y="52">Linux/AI</text>
    <text class="metric-sub accent-orange" x="0" y="70">Arch · Python · C++</text>
  </g>
</svg>
